solid OpenSCAD_Model
  facet normal 0.951057 0.309017 0
    outer loop
      vertex 1 0 1
      vertex 0.809017 0.587785 0
      vertex 0.809017 0.587785 1
    endloop
  endfacet
  facet normal 0.951057 0.309017 0
    outer loop
      vertex 0.809017 0.587785 0
      vertex 1 0 1
      vertex 1 0 0
    endloop
  endfacet
  facet normal 0.587785 0.809017 -0
    outer loop
      vertex 0.809017 0.587785 0
      vertex 0.309017 0.951057 1
      vertex 0.809017 0.587785 1
    endloop
  endfacet
  facet normal 0.587785 0.809017 0
    outer loop
      vertex 0.309017 0.951057 1
      vertex 0.809017 0.587785 0
      vertex 0.309017 0.951057 0
    endloop
  endfacet
  facet normal 0 1 -0
    outer loop
      vertex 0.309017 0.951057 0
      vertex -0.309017 0.951057 1
      vertex 0.309017 0.951057 1
    endloop
  endfacet
  facet normal 0 1 0
    outer loop
      vertex -0.309017 0.951057 1
      vertex 0.309017 0.951057 0
      vertex -0.309017 0.951057 0
    endloop
  endfacet
  facet normal -0.587785 0.809017 0
    outer loop
      vertex -0.309017 0.951057 0
      vertex -0.809017 0.587785 1
      vertex -0.309017 0.951057 1
    endloop
  endfacet
  facet normal -0.587785 0.809017 0
    outer loop
      vertex -0.809017 0.587785 1
      vertex -0.309017 0.951057 0
      vertex -0.809017 0.587785 0
    endloop
  endfacet
  facet normal -0.951057 0.309017 0
    outer loop
      vertex -1 1.22465e-16 0
      vertex -0.809017 0.587785 1
      vertex -0.809017 0.587785 0
    endloop
  endfacet
  facet normal -0.951057 0.309017 0
    outer loop
      vertex -0.809017 0.587785 1
      vertex -1 1.22465e-16 0
      vertex -1 1.22465e-16 1
    endloop
  endfacet
  facet normal -0.951057 -0.309017 0
    outer loop
      vertex -0.809017 -0.587785 0
      vertex -1 1.22465e-16 1
      vertex -1 1.22465e-16 0
    endloop
  endfacet
  facet normal -0.951057 -0.309017 0
    outer loop
      vertex -1 1.22465e-16 1
      vertex -0.809017 -0.587785 0
      vertex -0.809017 -0.587785 1
    endloop
  endfacet
  facet normal -0.587785 -0.809017 0
    outer loop
      vertex -0.809017 -0.587785 0
      vertex -0.309017 -0.951057 1
      vertex -0.809017 -0.587785 1
    endloop
  endfacet
  facet normal -0.587785 -0.809017 -0
    outer loop
      vertex -0.309017 -0.951057 1
      vertex -0.809017 -0.587785 0
      vertex -0.309017 -0.951057 0
    endloop
  endfacet
  facet normal 0 -1 0
    outer loop
      vertex -0.309017 -0.951057 0
      vertex 0.309017 -0.951057 1
      vertex -0.309017 -0.951057 1
    endloop
  endfacet
  facet normal 0 -1 -0
    outer loop
      vertex 0.309017 -0.951057 1
      vertex -0.309017 -0.951057 0
      vertex 0.309017 -0.951057 0
    endloop
  endfacet
  facet normal 0.587785 -0.809017 0
    outer loop
      vertex 0.309017 -0.951057 0
      vertex 0.809017 -0.587785 1
      vertex 0.309017 -0.951057 1
    endloop
  endfacet
  facet normal 0.587785 -0.809017 0
    outer loop
      vertex 0.809017 -0.587785 1
      vertex 0.309017 -0.951057 0
      vertex 0.809017 -0.587785 0
    endloop
  endfacet
  facet normal 0.951057 -0.309017 0
    outer loop
      vertex 0.809017 -0.587785 1
      vertex 1 0 0
      vertex 1 0 1
    endloop
  endfacet
  facet normal 0.951057 -0.309017 0
    outer loop
      vertex 1 0 0
      vertex 0.809017 -0.587785 1
      vertex 0.809017 -0.587785 0
    endloop
  endfacet
  facet normal 0 0 -1
    outer loop
      vertex 0.809017 -0.587785 0
      vertex 0.809017 0.587785 0
      vertex 1 0 0
    endloop
  endfacet
  facet normal 0 0 -1
    outer loop
      vertex 0.309017 -0.951057 0
      vertex 0.809017 0.587785 0
      vertex 0.809017 -0.587785 0
    endloop
  endfacet
  facet normal 0 0 -1
    outer loop
      vertex 0.309017 -0.951057 0
      vertex 0.309017 0.951057 0
      vertex 0.809017 0.587785 0
    endloop
  endfacet
  facet normal 0 0 -1
    outer loop
      vertex -0.309017 -0.951057 0
      vertex 0.309017 0.951057 0
      vertex 0.309017 -0.951057 0
    endloop
  endfacet
  facet normal 0 0 -1
    outer loop
      vertex -0.309017 -0.951057 0
      vertex -0.309017 0.951057 0
      vertex 0.309017 0.951057 0
    endloop
  endfacet
  facet normal 0 0 -1
    outer loop
      vertex -0.809017 -0.587785 0
      vertex -0.309017 0.951057 0
      vertex -0.309017 -0.951057 0
    endloop
  endfacet
  facet normal 0 0 -1
    outer loop
      vertex -0.809017 -0.587785 0
      vertex -0.809017 0.587785 0
      vertex -0.309017 0.951057 0
    endloop
  endfacet
  facet normal 0 -0 -1
    outer loop
      vertex -0.809017 0.587785 0
      vertex -0.809017 -0.587785 0
      vertex -1 1.22465e-16 0
    endloop
  endfacet
  facet normal 0 0 1
    outer loop
      vertex 0.809017 0.587785 1
      vertex 0.809017 -0.587785 1
      vertex 1 0 1
    endloop
  endfacet
  facet normal 0 0 1
    outer loop
      vertex 0.309017 0.951057 1
      vertex 0.809017 -0.587785 1
      vertex 0.809017 0.587785 1
    endloop
  endfacet
  facet normal 0 0 1
    outer loop
      vertex 0.309017 0.951057 1
      vertex 0.309017 -0.951057 1
      vertex 0.809017 -0.587785 1
    endloop
  endfacet
  facet normal -0 0 1
    outer loop
      vertex -0.309017 0.951057 1
      vertex 0.309017 -0.951057 1
      vertex 0.309017 0.951057 1
    endloop
  endfacet
  facet normal 0 0 1
    outer loop
      vertex -0.309017 0.951057 1
      vertex -0.309017 -0.951057 1
      vertex 0.309017 -0.951057 1
    endloop
  endfacet
  facet normal -0 0 1
    outer loop
      vertex -0.809017 0.587785 1
      vertex -0.309017 -0.951057 1
      vertex -0.309017 0.951057 1
    endloop
  endfacet
  facet normal 0 0 1
    outer loop
      vertex -0.809017 0.587785 1
      vertex -0.809017 -0.587785 1
      vertex -0.309017 -0.951057 1
    endloop
  endfacet
  facet normal 0 -0 1
    outer loop
      vertex -0.809017 -0.587785 1
      vertex -0.809017 0.587785 1
      vertex -1 1.22465e-16 1
    endloop
  endfacet
endsolid OpenSCAD_Model
