solid OpenSCAD_Model
  facet normal 0.57735 0.187592 0.794654
    outer loop
      vertex 0.809017 0 0.587785
      vertex 0.654508 0.475528 0.587785
      vertex 0.309017 0 0.951057
    endloop
  endfacet
  facet normal 0.57735 0.187592 0.794654
    outer loop
      vertex 0.654508 0.475528 0.587785
      vertex 0.25 0.181636 0.951057
      vertex 0.309017 0 0.951057
    endloop
  endfacet
  facet normal 0.356822 0.491123 0.794654
    outer loop
      vertex 0.654508 0.475528 0.587785
      vertex 0.25 0.769421 0.587785
      vertex 0.25 0.181636 0.951057
    endloop
  endfacet
  facet normal 0.356822 0.491123 0.794654
    outer loop
      vertex 0.25 0.769421 0.587785
      vertex 0.0954915 0.293893 0.951057
      vertex 0.25 0.181636 0.951057
    endloop
  endfacet
  facet normal 0 0.607062 0.794654
    outer loop
      vertex 0.25 0.769421 0.587785
      vertex -0.25 0.769421 0.587785
      vertex 0.0954915 0.293893 0.951057
    endloop
  endfacet
  facet normal 2.42861e-16 0.607062 0.794654
    outer loop
      vertex -0.25 0.769421 0.587785
      vertex -0.0954915 0.293893 0.951057
      vertex 0.0954915 0.293893 0.951057
    endloop
  endfacet
  facet normal -0.356822 0.491123 0.794654
    outer loop
      vertex -0.25 0.769421 0.587785
      vertex -0.654508 0.475528 0.587785
      vertex -0.0954915 0.293893 0.951057
    endloop
  endfacet
  facet normal -0.356822 0.491123 0.794654
    outer loop
      vertex -0.654508 0.475528 0.587785
      vertex -0.25 0.181636 0.951057
      vertex -0.0954915 0.293893 0.951057
    endloop
  endfacet
  facet normal -0.57735 0.187592 0.794654
    outer loop
      vertex -0.654508 0.475528 0.587785
      vertex -0.809017 9.9076e-17 0.587785
      vertex -0.25 0.181636 0.951057
    endloop
  endfacet
  facet normal -0.57735 0.187592 0.794654
    outer loop
      vertex -0.809017 9.9076e-17 0.587785
      vertex -0.309017 3.78437e-17 0.951057
      vertex -0.25 0.181636 0.951057
    endloop
  endfacet
  facet normal -0.57735 -0.187592 0.794654
    outer loop
      vertex -0.809017 9.9076e-17 0.587785
      vertex -0.654508 -0.475528 0.587785
      vertex -0.309017 3.78437e-17 0.951057
    endloop
  endfacet
  facet normal -0.57735 -0.187592 0.794654
    outer loop
      vertex -0.654508 -0.475528 0.587785
      vertex -0.25 -0.181636 0.951057
      vertex -0.309017 3.78437e-17 0.951057
    endloop
  endfacet
  facet normal -0.356822 -0.491123 0.794654
    outer loop
      vertex -0.654508 -0.475528 0.587785
      vertex -0.25 -0.769421 0.587785
      vertex -0.25 -0.181636 0.951057
    endloop
  endfacet
  facet normal -0.356822 -0.491123 0.794654
    outer loop
      vertex -0.25 -0.769421 0.587785
      vertex -0.0954915 -0.293893 0.951057
      vertex -0.25 -0.181636 0.951057
    endloop
  endfacet
  facet normal 0 -0.607062 0.794654
    outer loop
      vertex -0.25 -0.769421 0.587785
      vertex 0.25 -0.769421 0.587785
      vertex -0.0954915 -0.293893 0.951057
    endloop
  endfacet
  facet normal -2.42861e-16 -0.607062 0.794654
    outer loop
      vertex 0.25 -0.769421 0.587785
      vertex 0.0954915 -0.293893 0.951057
      vertex -0.0954915 -0.293893 0.951057
    endloop
  endfacet
  facet normal 0.356822 -0.491123 0.794654
    outer loop
      vertex 0.25 -0.769421 0.587785
      vertex 0.654508 -0.475528 0.587785
      vertex 0.0954915 -0.293893 0.951057
    endloop
  endfacet
  facet normal 0.356822 -0.491123 0.794654
    outer loop
      vertex 0.654508 -0.475528 0.587785
      vertex 0.25 -0.181636 0.951057
      vertex 0.0954915 -0.293893 0.951057
    endloop
  endfacet
  facet normal 0.57735 -0.187592 0.794654
    outer loop
      vertex 0.654508 -0.475528 0.587785
      vertex 0.809017 0 0.587785
      vertex 0.25 -0.181636 0.951057
    endloop
  endfacet
  facet normal 0.57735 -0.187592 0.794654
    outer loop
      vertex 0.809017 0 0.587785
      vertex 0.309017 0 0.951057
      vertex 0.25 -0.181636 0.951057
    endloop
  endfacet
  facet normal 0.908661 0.295242 0.295242
    outer loop
      vertex 1 0 6.12323e-17
      vertex 0.809017 0.587785 6.12323e-17
      vertex 0.809017 0 0.587785
    endloop
  endfacet
  facet normal 0.908661 0.295242 0.295242
    outer loop
      vertex 0.809017 0.587785 6.12323e-17
      vertex 0.654508 0.475528 0.587785
      vertex 0.809017 0 0.587785
    endloop
  endfacet
  facet normal 0.561583 0.772953 0.295242
    outer loop
      vertex 0.809017 0.587785 6.12323e-17
      vertex 0.309017 0.951057 6.12323e-17
      vertex 0.654508 0.475528 0.587785
    endloop
  endfacet
  facet normal 0.561583 0.772953 0.295242
    outer loop
      vertex 0.309017 0.951057 6.12323e-17
      vertex 0.25 0.769421 0.587785
      vertex 0.654508 0.475528 0.587785
    endloop
  endfacet
  facet normal 1.7163e-16 0.955423 0.295242
    outer loop
      vertex 0.309017 0.951057 6.12323e-17
      vertex -0.309017 0.951057 6.12323e-17
      vertex 0.25 0.769421 0.587785
    endloop
  endfacet
  facet normal 0 0.955423 0.295242
    outer loop
      vertex -0.309017 0.951057 6.12323e-17
      vertex -0.25 0.769421 0.587785
      vertex 0.25 0.769421 0.587785
    endloop
  endfacet
  facet normal -0.561583 0.772953 0.295242
    outer loop
      vertex -0.309017 0.951057 6.12323e-17
      vertex -0.809017 0.587785 6.12323e-17
      vertex -0.25 0.769421 0.587785
    endloop
  endfacet
  facet normal -0.561583 0.772953 0.295242
    outer loop
      vertex -0.809017 0.587785 6.12323e-17
      vertex -0.654508 0.475528 0.587785
      vertex -0.25 0.769421 0.587785
    endloop
  endfacet
  facet normal -0.908661 0.295242 0.295242
    outer loop
      vertex -0.809017 0.587785 6.12323e-17
      vertex -1 1.22465e-16 6.12323e-17
      vertex -0.654508 0.475528 0.587785
    endloop
  endfacet
  facet normal -0.908661 0.295242 0.295242
    outer loop
      vertex -1 1.22465e-16 6.12323e-17
      vertex -0.809017 9.9076e-17 0.587785
      vertex -0.654508 0.475528 0.587785
    endloop
  endfacet
  facet normal -0.908661 -0.295242 0.295242
    outer loop
      vertex -1 1.22465e-16 6.12323e-17
      vertex -0.809017 -0.587785 6.12323e-17
      vertex -0.809017 9.9076e-17 0.587785
    endloop
  endfacet
  facet normal -0.908661 -0.295242 0.295242
    outer loop
      vertex -0.809017 -0.587785 6.12323e-17
      vertex -0.654508 -0.475528 0.587785
      vertex -0.809017 9.9076e-17 0.587785
    endloop
  endfacet
  facet normal -0.561583 -0.772953 0.295242
    outer loop
      vertex -0.809017 -0.587785 6.12323e-17
      vertex -0.309017 -0.951057 6.12323e-17
      vertex -0.654508 -0.475528 0.587785
    endloop
  endfacet
  facet normal -0.561583 -0.772953 0.295242
    outer loop
      vertex -0.309017 -0.951057 6.12323e-17
      vertex -0.25 -0.769421 0.587785
      vertex -0.654508 -0.475528 0.587785
    endloop
  endfacet
  facet normal -1.7163e-16 -0.955423 0.295242
    outer loop
      vertex -0.309017 -0.951057 6.12323e-17
      vertex 0.309017 -0.951057 6.12323e-17
      vertex -0.25 -0.769421 0.587785
    endloop
  endfacet
  facet normal 0 -0.955423 0.295242
    outer loop
      vertex 0.309017 -0.951057 6.12323e-17
      vertex 0.25 -0.769421 0.587785
      vertex -0.25 -0.769421 0.587785
    endloop
  endfacet
  facet normal 0.561583 -0.772953 0.295242
    outer loop
      vertex 0.309017 -0.951057 6.12323e-17
      vertex 0.809017 -0.587785 6.12323e-17
      vertex 0.25 -0.769421 0.587785
    endloop
  endfacet
  facet normal 0.561583 -0.772953 0.295242
    outer loop
      vertex 0.809017 -0.587785 6.12323e-17
      vertex 0.654508 -0.475528 0.587785
      vertex 0.25 -0.769421 0.587785
    endloop
  endfacet
  facet normal 0.908661 -0.295242 0.295242
    outer loop
      vertex 0.809017 -0.587785 6.12323e-17
      vertex 1 0 6.12323e-17
      vertex 0.654508 -0.475528 0.587785
    endloop
  endfacet
  facet normal 0.908661 -0.295242 0.295242
    outer loop
      vertex 1 0 6.12323e-17
      vertex 0.809017 0 0.587785
      vertex 0.654508 -0.475528 0.587785
    endloop
  endfacet
  facet normal 0.908661 0.295242 -0.295242
    outer loop
      vertex 0.809017 0 -0.587785
      vertex 0.654508 0.475528 -0.587785
      vertex 1 0 6.12323e-17
    endloop
  endfacet
  facet normal 0.908661 0.295242 -0.295242
    outer loop
      vertex 0.654508 0.475528 -0.587785
      vertex 0.809017 0.587785 6.12323e-17
      vertex 1 0 6.12323e-17
    endloop
  endfacet
  facet normal 0.561583 0.772953 -0.295242
    outer loop
      vertex 0.654508 0.475528 -0.587785
      vertex 0.25 0.769421 -0.587785
      vertex 0.809017 0.587785 6.12323e-17
    endloop
  endfacet
  facet normal 0.561583 0.772953 -0.295242
    outer loop
      vertex 0.25 0.769421 -0.587785
      vertex 0.309017 0.951057 6.12323e-17
      vertex 0.809017 0.587785 6.12323e-17
    endloop
  endfacet
  facet normal 0 0.955423 -0.295242
    outer loop
      vertex 0.25 0.769421 -0.587785
      vertex -0.25 0.769421 -0.587785
      vertex 0.309017 0.951057 6.12323e-17
    endloop
  endfacet
  facet normal 1.82497e-16 0.955423 -0.295242
    outer loop
      vertex -0.25 0.769421 -0.587785
      vertex -0.309017 0.951057 6.12323e-17
      vertex 0.309017 0.951057 6.12323e-17
    endloop
  endfacet
  facet normal -0.561583 0.772953 -0.295242
    outer loop
      vertex -0.25 0.769421 -0.587785
      vertex -0.654508 0.475528 -0.587785
      vertex -0.309017 0.951057 6.12323e-17
    endloop
  endfacet
  facet normal -0.561583 0.772953 -0.295242
    outer loop
      vertex -0.654508 0.475528 -0.587785
      vertex -0.809017 0.587785 6.12323e-17
      vertex -0.309017 0.951057 6.12323e-17
    endloop
  endfacet
  facet normal -0.908661 0.295242 -0.295242
    outer loop
      vertex -0.654508 0.475528 -0.587785
      vertex -0.809017 9.9076e-17 -0.587785
      vertex -0.809017 0.587785 6.12323e-17
    endloop
  endfacet
  facet normal -0.908661 0.295242 -0.295242
    outer loop
      vertex -0.809017 9.9076e-17 -0.587785
      vertex -1 1.22465e-16 6.12323e-17
      vertex -0.809017 0.587785 6.12323e-17
    endloop
  endfacet
  facet normal -0.908661 -0.295242 -0.295242
    outer loop
      vertex -0.809017 9.9076e-17 -0.587785
      vertex -0.654508 -0.475528 -0.587785
      vertex -1 1.22465e-16 6.12323e-17
    endloop
  endfacet
  facet normal -0.908661 -0.295242 -0.295242
    outer loop
      vertex -0.654508 -0.475528 -0.587785
      vertex -0.809017 -0.587785 6.12323e-17
      vertex -1 1.22465e-16 6.12323e-17
    endloop
  endfacet
  facet normal -0.561583 -0.772953 -0.295242
    outer loop
      vertex -0.654508 -0.475528 -0.587785
      vertex -0.25 -0.769421 -0.587785
      vertex -0.809017 -0.587785 6.12323e-17
    endloop
  endfacet
  facet normal -0.561583 -0.772953 -0.295242
    outer loop
      vertex -0.25 -0.769421 -0.587785
      vertex -0.309017 -0.951057 6.12323e-17
      vertex -0.809017 -0.587785 6.12323e-17
    endloop
  endfacet
  facet normal 0 -0.955423 -0.295242
    outer loop
      vertex -0.25 -0.769421 -0.587785
      vertex 0.25 -0.769421 -0.587785
      vertex -0.309017 -0.951057 6.12323e-17
    endloop
  endfacet
  facet normal -1.82497e-16 -0.955423 -0.295242
    outer loop
      vertex 0.25 -0.769421 -0.587785
      vertex 0.309017 -0.951057 6.12323e-17
      vertex -0.309017 -0.951057 6.12323e-17
    endloop
  endfacet
  facet normal 0.561583 -0.772953 -0.295242
    outer loop
      vertex 0.25 -0.769421 -0.587785
      vertex 0.654508 -0.475528 -0.587785
      vertex 0.309017 -0.951057 6.12323e-17
    endloop
  endfacet
  facet normal 0.561583 -0.772953 -0.295242
    outer loop
      vertex 0.654508 -0.475528 -0.587785
      vertex 0.809017 -0.587785 6.12323e-17
      vertex 0.309017 -0.951057 6.12323e-17
    endloop
  endfacet
  facet normal 0.908661 -0.295242 -0.295242
    outer loop
      vertex 0.654508 -0.475528 -0.587785
      vertex 0.809017 0 -0.587785
      vertex 0.809017 -0.587785 6.12323e-17
    endloop
  endfacet
  facet normal 0.908661 -0.295242 -0.295242
    outer loop
      vertex 0.809017 0 -0.587785
      vertex 1 0 6.12323e-17
      vertex 0.809017 -0.587785 6.12323e-17
    endloop
  endfacet
  facet normal 0.57735 0.187592 -0.794654
    outer loop
      vertex 0.309017 0 -0.951057
      vertex 0.25 0.181636 -0.951057
      vertex 0.809017 0 -0.587785
    endloop
  endfacet
  facet normal 0.57735 0.187592 -0.794654
    outer loop
      vertex 0.25 0.181636 -0.951057
      vertex 0.654508 0.475528 -0.587785
      vertex 0.809017 0 -0.587785
    endloop
  endfacet
  facet normal 0.356822 0.491123 -0.794654
    outer loop
      vertex 0.25 0.181636 -0.951057
      vertex 0.0954915 0.293893 -0.951057
      vertex 0.654508 0.475528 -0.587785
    endloop
  endfacet
  facet normal 0.356822 0.491123 -0.794654
    outer loop
      vertex 0.0954915 0.293893 -0.951057
      vertex 0.25 0.769421 -0.587785
      vertex 0.654508 0.475528 -0.587785
    endloop
  endfacet
  facet normal 1.76449e-16 0.607062 -0.794654
    outer loop
      vertex 0.0954915 0.293893 -0.951057
      vertex -0.0954915 0.293893 -0.951057
      vertex 0.25 0.769421 -0.587785
    endloop
  endfacet
  facet normal 0 0.607062 -0.794654
    outer loop
      vertex -0.0954915 0.293893 -0.951057
      vertex -0.25 0.769421 -0.587785
      vertex 0.25 0.769421 -0.587785
    endloop
  endfacet
  facet normal -0.356822 0.491123 -0.794654
    outer loop
      vertex -0.0954915 0.293893 -0.951057
      vertex -0.25 0.181636 -0.951057
      vertex -0.25 0.769421 -0.587785
    endloop
  endfacet
  facet normal -0.356822 0.491123 -0.794654
    outer loop
      vertex -0.25 0.181636 -0.951057
      vertex -0.654508 0.475528 -0.587785
      vertex -0.25 0.769421 -0.587785
    endloop
  endfacet
  facet normal -0.57735 0.187592 -0.794654
    outer loop
      vertex -0.25 0.181636 -0.951057
      vertex -0.309017 3.78437e-17 -0.951057
      vertex -0.654508 0.475528 -0.587785
    endloop
  endfacet
  facet normal -0.57735 0.187592 -0.794654
    outer loop
      vertex -0.309017 3.78437e-17 -0.951057
      vertex -0.809017 9.9076e-17 -0.587785
      vertex -0.654508 0.475528 -0.587785
    endloop
  endfacet
  facet normal -0.57735 -0.187592 -0.794654
    outer loop
      vertex -0.309017 3.78437e-17 -0.951057
      vertex -0.25 -0.181636 -0.951057
      vertex -0.809017 9.9076e-17 -0.587785
    endloop
  endfacet
  facet normal -0.57735 -0.187592 -0.794654
    outer loop
      vertex -0.25 -0.181636 -0.951057
      vertex -0.654508 -0.475528 -0.587785
      vertex -0.809017 9.9076e-17 -0.587785
    endloop
  endfacet
  facet normal -0.356822 -0.491123 -0.794654
    outer loop
      vertex -0.25 -0.181636 -0.951057
      vertex -0.0954915 -0.293893 -0.951057
      vertex -0.654508 -0.475528 -0.587785
    endloop
  endfacet
  facet normal -0.356822 -0.491123 -0.794654
    outer loop
      vertex -0.0954915 -0.293893 -0.951057
      vertex -0.25 -0.769421 -0.587785
      vertex -0.654508 -0.475528 -0.587785
    endloop
  endfacet
  facet normal -1.76449e-16 -0.607062 -0.794654
    outer loop
      vertex -0.0954915 -0.293893 -0.951057
      vertex 0.0954915 -0.293893 -0.951057
      vertex -0.25 -0.769421 -0.587785
    endloop
  endfacet
  facet normal 0 -0.607062 -0.794654
    outer loop
      vertex 0.0954915 -0.293893 -0.951057
      vertex 0.25 -0.769421 -0.587785
      vertex -0.25 -0.769421 -0.587785
    endloop
  endfacet
  facet normal 0.356822 -0.491123 -0.794654
    outer loop
      vertex 0.0954915 -0.293893 -0.951057
      vertex 0.25 -0.181636 -0.951057
      vertex 0.25 -0.769421 -0.587785
    endloop
  endfacet
  facet normal 0.356822 -0.491123 -0.794654
    outer loop
      vertex 0.25 -0.181636 -0.951057
      vertex 0.654508 -0.475528 -0.587785
      vertex 0.25 -0.769421 -0.587785
    endloop
  endfacet
  facet normal 0.57735 -0.187592 -0.794654
    outer loop
      vertex 0.25 -0.181636 -0.951057
      vertex 0.309017 0 -0.951057
      vertex 0.654508 -0.475528 -0.587785
    endloop
  endfacet
  facet normal 0.57735 -0.187592 -0.794654
    outer loop
      vertex 0.309017 0 -0.951057
      vertex 0.809017 0 -0.587785
      vertex 0.654508 -0.475528 -0.587785
    endloop
  endfacet
  facet normal 0 0 1
    outer loop
      vertex 0.25 0.181636 0.951057
      vertex 0.25 -0.181636 0.951057
      vertex 0.309017 0 0.951057
    endloop
  endfacet
  facet normal 0 0 1
    outer loop
      vertex 0.0954915 0.293893 0.951057
      vertex 0.25 -0.181636 0.951057
      vertex 0.25 0.181636 0.951057
    endloop
  endfacet
  facet normal 0 0 1
    outer loop
      vertex 0.0954915 0.293893 0.951057
      vertex 0.0954915 -0.293893 0.951057
      vertex 0.25 -0.181636 0.951057
    endloop
  endfacet
  facet normal -0 0 1
    outer loop
      vertex -0.0954915 0.293893 0.951057
      vertex 0.0954915 -0.293893 0.951057
      vertex 0.0954915 0.293893 0.951057
    endloop
  endfacet
  facet normal 0 0 1
    outer loop
      vertex -0.0954915 0.293893 0.951057
      vertex -0.0954915 -0.293893 0.951057
      vertex 0.0954915 -0.293893 0.951057
    endloop
  endfacet
  facet normal -0 0 1
    outer loop
      vertex -0.25 0.181636 0.951057
      vertex -0.0954915 -0.293893 0.951057
      vertex -0.0954915 0.293893 0.951057
    endloop
  endfacet
  facet normal 0 0 1
    outer loop
      vertex -0.25 0.181636 0.951057
      vertex -0.25 -0.181636 0.951057
      vertex -0.0954915 -0.293893 0.951057
    endloop
  endfacet
  facet normal 0 -0 1
    outer loop
      vertex -0.25 -0.181636 0.951057
      vertex -0.25 0.181636 0.951057
      vertex -0.309017 3.78437e-17 0.951057
    endloop
  endfacet
  facet normal 0 0 -1
    outer loop
      vertex 0.25 -0.181636 -0.951057
      vertex 0.25 0.181636 -0.951057
      vertex 0.309017 0 -0.951057
    endloop
  endfacet
  facet normal 0 0 -1
    outer loop
      vertex 0.0954915 -0.293893 -0.951057
      vertex 0.25 0.181636 -0.951057
      vertex 0.25 -0.181636 -0.951057
    endloop
  endfacet
  facet normal 0 0 -1
    outer loop
      vertex 0.0954915 -0.293893 -0.951057
      vertex 0.0954915 0.293893 -0.951057
      vertex 0.25 0.181636 -0.951057
    endloop
  endfacet
  facet normal 0 0 -1
    outer loop
      vertex -0.0954915 -0.293893 -0.951057
      vertex 0.0954915 0.293893 -0.951057
      vertex 0.0954915 -0.293893 -0.951057
    endloop
  endfacet
  facet normal 0 0 -1
    outer loop
      vertex -0.0954915 -0.293893 -0.951057
      vertex -0.0954915 0.293893 -0.951057
      vertex 0.0954915 0.293893 -0.951057
    endloop
  endfacet
  facet normal 0 0 -1
    outer loop
      vertex -0.25 -0.181636 -0.951057
      vertex -0.0954915 0.293893 -0.951057
      vertex -0.0954915 -0.293893 -0.951057
    endloop
  endfacet
  facet normal 0 0 -1
    outer loop
      vertex -0.25 -0.181636 -0.951057
      vertex -0.25 0.181636 -0.951057
      vertex -0.0954915 0.293893 -0.951057
    endloop
  endfacet
  facet normal 0 -0 -1
    outer loop
      vertex -0.25 0.181636 -0.951057
      vertex -0.25 -0.181636 -0.951057
      vertex -0.309017 3.78437e-17 -0.951057
    endloop
  endfacet
endsolid OpenSCAD_Model
